<svg xmlns="http://www.w3.org/2000/svg" width="920" height="136"><g data-name="アウトライン化テキスト(見出しミンM31)" fill="#fff"><path data-name="パス 3" d="M165.171 95.19c-.348 2-.434 2.431-1.389 2.431s-6.857-1.91-14.147-8.419c-.087.781-.868.955-1.476.955H137.05a2.067 2.067 0 01.174.781c0 .694-.434 1.041-1.823 1.909v14.928h9.113l4.774-5.9a1.533 1.533 0 011.388-.781 2.688 2.688 0 011.563.781l5.641 5.12a2.077 2.077 0 01.868 1.65c0 .867-.781 1.127-1.475 1.127h-21.872v20.657h17.445l4.948-6.422a1.875 1.875 0 011.475-.868 2.453 2.453 0 011.562.781l6.683 5.728a1.943 1.943 0 01.781 1.562c0 .868-.781 1.129-1.475 1.129H92.439l-1.041-1.91h32.373v-20.657H99.73l-1.042-2h25.083V90.154H109.19a63.922 63.922 0 01-20.657 8.939l-.347-.781c20.05-10.241 29.683-32.807 33.5-42.962l14.928 3.559c.782.173 2.083.867 2.083 1.822 0 1.128-.781 1.736-2.17 2.517 8.506 15.623 25.431 20.57 34.63 23.087v.954c-4.337 1.652-5.726 6.079-5.986 7.901zm-31.072-31.158h-.867c-8.159 11.2-13.8 18.4-21.351 24.215h25l3.384-5.294a1.652 1.652 0 011.389-.868 2.932 2.932 0 011.649.781l1.215 1.042a58.362 58.362 0 01-10.419-19.876z"/><path data-name="パス 4" d="M260.571 125.047c-4.426 1.128-5.034 3.819-6.162 8.593a1.385 1.385 0 01-1.3 1.214c-1.476 0-7.2-6.249-11.891-14.754-2.517 2.777-9.547 10.328-24.562 15.362l-.347-.868a61.69 61.69 0 0021.524-21.784 79.353 79.353 0 01-5.468-28.729h-1.648v8.68c0 9.026-4.514 32.2-20.483 42.614l-.608-.607c3.992-4.427 7.291-12.064 8.506-20.57.868-6.162 1.648-13.539 1.648-16.317V82.172h-24.909v13.713h5.295l2.69-3.472a2.139 2.139 0 011.823-.955 3.986 3.986 0 012.17.869l6.6 5.12a1.548 1.548 0 01.521 1.129c0 .954-1.736 2.6-2.951 3.819v28.554c0 1.909-4.079 3.992-6.944 3.992-1.3 0-3.471-.26-3.471-2.083V97.794h-5.733c0 13.019-5.9 29.51-13.973 37.755l-.781-.521a54.554 54.554 0 003.472-16.664c.173-2.083.954-15.622.954-16.577V57.176L196 58.13c.607.087 1.475.348 1.475 1.3 0 1.041-.694 1.475-2.6 2.516V80.26h6.076v-23.7l11.717 1.476c.347.086 1.388.173 1.388 1.215s-.867 1.388-2.777 2.17V79.3l2.083-3.645a1.628 1.628 0 011.476-.782 3.77 3.77 0 011.475.608l3.471 3.124V55.699l10.763 5.295h16.577l3.732-4.514c.434-.52.7-.868 1.389-.868.521 0 .607.087 1.476.7l6.075 3.992a1.668 1.668 0 01.954 1.562c0 .868-.867 1.129-1.562 1.129h-28.475v19.094h15.188l3.906-4.166a2.152 2.152 0 011.822-.955 3.178 3.178 0 011.823.782l6.51 6.075a1.849 1.849 0 01.694 1.475c0 .521-1.389 1.736-2.951 3.125-4.166 14.928-7.985 21-10.155 24.389a52.73 52.73 0 0013.366 11.369zm-26.3-40.966a56.432 56.432 0 007.378 20.83c1.388-3.472 3.731-9.2 4.86-20.83z"/><path data-name="パス 5" d="M334.847 85.183c.911-1.417 5.365-8.3 5.365-9.212 0-.1-.1-.708-1.012-.708-4.353 0-41.2 7.794-47.678 10.122-.911.3-5.365 2.835-6.478 2.835-3.644 0-11.135-11.034-11.135-15.994 0-.607.2-.911.708-.911.608 0 3.138 2.227 3.746 2.632a10.419 10.419 0 007.187 2.328c2.227 0 52.132-6.984 55.776-8.2.809-.3 4.15-2.835 4.96-2.835 4.049 0 12.147 11.439 12.147 14.071 0 2.024-1.619 2.024-4.657 2.125-1.113 0-1.518.1-4.048 2.329-19.436 17.512-20.954 18.828-27.331 23.282 3.34 4.049 6.377 9.718 6.377 14.779 0 6.074-4.353 7.086-6.377 7.086a4.724 4.724 0 01-3.847-1.721c-.911-1.113-2.835-8-3.341-9.515-3.745-10.325-10.325-19.638-20.448-23.788a38.435 38.435 0 0124.8 10.122c7.593-8.3 11.136-12.45 15.286-18.827z"/><path data-name="パス 6" d="M371.632 123.447c10.527-9.617 16.8-17.411 21.358-27.028 2.329-4.859 6.378-14.374 6.378-17.816 0-2.936-2.531-5.365-3.746-6.175-.3-.2-1.113-.708-1.113-1.214 0-.709 2.632-.709 3.746-.709 3.947 0 6.377.81 11.539 5.973 1.012 1.012 3.442 3.542 3.442 4.858 0 .912-.506 1.114-1.721 1.822-1.721.911-2.429 2.329-4.049 5.669-6.782 14.779-15.488 27.331-35.834 35.227zm91.512-12.548c0 1.822 0 8.1-5.466 8.1-4.96 0-5.771-4.252-6.276-6.58-4.151-19.638-7.492-27.331-23.991-42.515 19.941 6.067 35.733 27.122 35.733 40.995z"/><path data-name="パス 7" d="M496.493 92.674c6.377 0 37.555-1.822 44.641-2.126.91 0 5.162-1.316 6.175-1.316 3.036 0 10.325 4.859 10.325 8.705 0 1.519-1.721 2.734-3.846 2.734-1.215 0-3.543-.3-5.265-.506a139.862 139.862 0 00-16.8-1.519c-3.644 0-29.558 1.923-32.8 2.43-1.113.1-6.276 1.821-7.591 1.821s-10.326-3.036-11.035-16.6c3.036 2.935 6.481 6.377 16.196 6.377z"/><path data-name="パス 8" d="M567.904 124.864c17.005-12.856 27.229-40.592 27.229-45.856 0-1.619-.4-3.341-3.847-6.377-.2-.2-.708-.608-.708-1.113s2.126-.709 3.341-.709c4.049 0 5.668.911 8.807 3.441.3.2 6.478 5.062 6.478 7.39 0 1.113-1.214 1.721-2.429 2.328-.81.507-2.328 4.454-2.734 5.163-10.426 19.233-18.018 29.052-35.53 36.543zm92.116-13.565c0 5.467-3.847 7.9-6.175 7.9-4.758 0-5.669-5.365-6.681-11.439-1.924-10.831-7.289-22.472-23.181-37.453 18.322 3.943 36.037 27.529 36.037 40.992zm-1.923-36.846a3.6 3.6 0 01-3.239 3.442c-2.329 0-3.746-2.531-4.758-4.252-4.353-7.693-8.4-9.718-10.731-10.831 9.212-.405 18.728 4.859 18.728 11.641zm-7.188-20.246c8.6 0 16.4 5.366 16.4 10.123 0 1.418-1.012 3.645-3.138 3.645-1.518 0-2.328-.912-3.441-2.43-3.443-4.758-5.467-7.187-13.97-10.933a25.113 25.113 0 014.149-.405z"/><path data-name="パス 9" d="M692.927 92.674c6.377 0 37.555-1.822 44.641-2.126.911 0 5.163-1.316 6.175-1.316 3.036 0 10.325 4.859 10.325 8.705 0 1.519-1.721 2.734-3.846 2.734-1.215 0-3.543-.3-5.265-.506a139.862 139.862 0 00-16.8-1.519c-3.644 0-29.558 1.923-32.8 2.43-1.114.1-6.277 1.821-7.592 1.821s-10.329-3.036-11.029-16.598c3.032 2.933 6.473 6.375 16.191 6.375z"/><g data-name="グループ 213"><path data-name="パス 2" d="M72.645 131.557H47.909c-7.378 0-7.378-6.162-7.378-7.725V97.273H29.249l5.641 1.129c.781.174 2 .694 2 1.562s-.607 1.042-2.343 1.649c-.434 9.634-4.34 18.313-8.766 22.913-5.642 5.815-15.275 9.374-25.517 9.808l-.26-.868c18.747-6.944 21.958-17.619 22.305-36.193H1.822L.781 95.364h61.362l4.34-6.075a1.6 1.6 0 011.388-.781 2.727 2.727 0 011.649.694l7.2 5.381a1.838 1.838 0 01.868 1.562c0 .868-.781 1.128-1.476 1.128H53.724a1.634 1.634 0 01.174.695c0 1.042-.869 1.3-2.257 1.823v18.4a2.632 2.632 0 002.864 2.952h13.54c1.909 0 3.124-1.823 3.645-3.212 1.129-2.777 2.951-8.505 4.079-12.238l.868.174-.781 13.193a3.116 3.116 0 001.042 2.864 5.938 5.938 0 011.562 4.079 5.665 5.665 0 01-5.815 5.554zm3.9-57.283c-.26 0-2.083-.174-2.517-.174a69.4 69.4 0 01-10.675 5.468l2 1.649a2.052 2.052 0 01.781 1.562c0 .868-.781 1.129-1.475 1.129h-49.9l-1.042-1.91h38.185l4.252-5.988a1.6 1.6 0 011.389-.782 2.456 2.456 0 011.562.782l2.17 1.822a37.223 37.223 0 002.256-7.638H15.622c.521 5.555-1.822 14.061-9.2 14.061-2.083 0-6.336-1.042-6.336-5.729 0-3.124 1.041-3.818 6.075-7.29 3.992-2.777 4.513-5.728 5.034-11.2h.868a24.462 24.462 0 013.3 8.158h19.268v-11.63l9.981.521c.607.087 3.385.174 3.385 1.736 0 .694-.26 1.3-2.951 2.691v6.682h18.226l2.691-3.992a3.4 3.4 0 012.43-1.389 3.119 3.119 0 012.17.521l7.724 6.6a2.473 2.473 0 011.042 2.083c-.001 1.128-.782 2.257-2.779 2.257z"/><path data-name="パス 10" d="M780.708 134.986c8.2-3.137 19.943-9.211 27.636-20.65a86.413 86.413 0 0011.945-27.129.533.533 0 00-.608-.607c-.708 0-27.229 2.936-35.126 7.086-3.036 1.519-3.34 1.721-4.149 1.721-1.924 0-11.237-5.77-11.237-12.451 0-.607 0-1.519.81-1.519a3.167 3.167 0 011.113.811c1.215 1.012 3.341 2.935 8.605 2.935 7.187 0 39.58-3.948 40.895-4.555.608-.3 2.632-2.328 3.138-2.632a2.974 2.974 0 011.924-.709c3.037 0 10.629 6.782 10.629 9.516 0 1.821-1.317 2.429-3.543 3.644-1.924.911-2.532 2.024-3.341 3.846-12.755 31.178-30.469 39.985-48.691 41.706zm2.33-71.162a17.262 17.262 0 005.871 1.215c5.971 0 22.573-.81 25.205-2.834.3-.2 1.518-1.316 1.822-1.62a2.042 2.042 0 011.417-.506c2.53 0 10.021 2.733 10.021 6.883 0 2.834-2.834 2.936-8.2 3.138-2.024 0-25 2.835-26.927 3.442a23.608 23.608 0 01-2.53.708c-2.328 0-11.641-6.377-11.641-12.045 0-.1 0-.608.1-.709.204-.203 4.051 2.024 4.862 2.328z"/><path data-name="パス 11" d="M850.66 132.861a73.077 73.077 0 0039.478-29.356 42.759 42.759 0 00-13.564-12.653c-6.377 6.478-14.678 10.628-23.283 13.564l-.4-.81c14.476-9.414 28.242-32.9 28.242-39.174a7.9 7.9 0 00-.911-2.734c-.2-.4-1.822-2.328-1.822-2.733 0-.911.81-1.012 1.417-1.012 5.265 0 8.706 3.644 10.528 5.567 1.012 1.114 3.847 4.252 3.847 5.771 0 .4-.1.708-1.215 1.315-.405.3-2.024 1.114-2.227 1.316.81.1 4.859.2 5.668.2 1.317 0 6.479-.809 7.592-1.518 3.949-2.733 4.353-3.037 5.669-3.037 2.025 0 4.454 2.531 5.973 4.05s4.352 4.352 4.352 5.77c0 .911-.405 1.316-4.048 3.543-1.823 1.214-2.025 1.619-3.443 5.263a74.793 74.793 0 01-9.414 17.209c1.924 2.834 3.543 7.187 3.543 9.515 0 1.013-.809 5.365-4.251 5.365-3.847 0-5.061-2.227-6.985-5.669-8.4 9.009-24.092 20.55-44.742 21.055zm53.043-54.46c0-.608-.3-.81-.81-.81-1.417 0-7.795 1.114-9.312 1.114-1.823 0-3.543-1.215-5.669-2.734a112.539 112.539 0 01-9.82 13.261c5.365.911 12.148 4.049 16.906 6.985 4.554-7.694 8.705-16.298 8.705-17.818z"/></g><g data-name="世界最長の叙事詩をピーター・ブルック以来の全編舞台化"><path data-name="パス 12" d="M34.294 12.064h-4.79v11.7c0 1.8-2.917 2.089-3.241 2.089-1.224 0-1.224-.72-1.224-1.188v-1.478h-4.5v3.241c0 1.3-2.448 1.8-3.421 1.8-.9 0-1.26-.541-1.26-1.333V12.059h-4.285v18.077h16.349l2.052-2.449c.181-.215.252-.36.577-.36a1.021 1.021 0 01.647.324l2.414 2.125a1.1 1.1 0 01.359.648c0 .36-.323.505-.648.505h-21.75v1.08c0 1.3-3.277 1.728-3.673 1.728-1.009 0-1.009-.756-1.009-1.656V12.059H2.172l-.432-.829h5.149V1.544l5.042.54c.288.036.684.108.684.468 0 .54-.612.792-1.044.972v7.706h4.285V1.472l4.79.576c.54.072.864.252.864.648 0 .576-.649.684-.973.72v7.814h4.5V1.616l4.681.612c.288.036.865.216.865.648 0 .576-.793.792-1.081.864v7.131l1.621-1.837c.216-.252.288-.36.576-.36.252 0 .36.108.648.324l2.233 1.908a.727.727 0 01.324.649c.002.365-.286.509-.61.509zm-9.255 0h-4.5v10.3h4.5z"/><path data-name="パス 13" d="M70.416 25.964c-.072.54-.072.576-.144.576a15.437 15.437 0 01-6.77-3.637v9.038c0 1.477-2.124 1.874-3.385 1.874-1.116 0-1.224-.325-1.224-.865v-13l1.837.18a17.6 17.6 0 01-3.061-4.9h-1.187a17.273 17.273 0 01-4.177 4.825l1.909.324c.359.072.756.216.756.648 0 .469-.145.505-1.225 1.009-.288 3.1-1.044 9.687-11.163 11.955l-.18-.36c5.8-3.025 6.194-7.454 6.482-11.091a22.261 22.261 0 01-9 3.493l-.144-.36A20.951 20.951 0 0050.003 15.23h-1.548v.612c0 1.332-3.781 1.62-3.889 1.62a.854.854 0 01-.937-.972V.897l5.078 2.125h15.875l1.152-1.368a1.215 1.215 0 011.044-.541 1.757 1.757 0 01.9.361l2.521 1.836a.966.966 0 01.5.829c0 .684-.54 1.044-1.188 1.44v9.327c0 1.44-2.448 2.34-3.637 2.34-1.116 0-1.116-.576-1.116-1.224v-.792h-5.474c1.584 2.088 6.158 5.618 13.54 6.41V22a5.061 5.061 0 00-2.408 3.964zM54.247 3.817h-5.8v4.718h5.8zm0 5.546h-5.8v4.933h5.8zm10.516-5.546h-5.222c-.036.468-.144.685-.828.829v3.889h6.05zm0 5.546h-6.05v4.933h6.05z"/><path data-name="パス 14" d="M110.392 16.061h-14.62c0 .36-.072.72-.828 1.045v1.98h8.966l1.08-1.369a1.2 1.2 0 011.081-.468 1.479 1.479 0 011.008.4l2.413 2.3a.939.939 0 01.324.613c0 .359-.36.5-1.548.972a35.206 35.206 0 01-3.6 5.725 18.977 18.977 0 006.2 1.765l.107.324a5.085 5.085 0 00-2.484 3.529c-.037.288-.073.612-.361.612a1.381 1.381 0 01-.54-.18 18.32 18.32 0 01-5.653-3.277 15.732 15.732 0 01-7.959 3.241 4.266 4.266 0 01-2.16.648c-1.189 0-1.189-.612-1.189-1.3v-4.9c-1.3.684-7.814 3.672-9.219 4.429-.144.612-.251.936-.612.936-.216 0-.4-.108-.576-.576l-1.62-4.574c1.188-.144 2.845-.324 3.493-.4V16.049h-3.6l-.432-.792h27.476l1.657-2.341a.687.687 0 01.576-.36c.252 0 .4.144.648.36l2.269 1.981a.984.984 0 01.36.648c-.009.408-.333.516-.657.516zm-4.141-10.983v6.554c0 .576 0 .864-.9 1.368a5.345 5.345 0 01-2.377.684c-.792 0-1.26-.4-1.26-1.008v-.684h-13.9v.648c0 .864-2.161 1.728-3.566 1.728-.972 0-1.008-.756-1.008-1.224V.937l4.789 1.8h13.613l1.116-1.441a.966.966 0 01.792-.359 1.338 1.338 0 01.792.288l2.593 1.872a.725.725 0 01.36.612c0 .397-.113.504-1.044 1.369zM90.622 16.061h-3.1c.071.576-.5.9-.973 1.116v1.981h4.069zm0 3.889h-4.069v3.1h4.069zm0 3.889h-4.069v3.205c1.476-.18 2.593-.288 4.069-.468zm11.092-20.273h-13.9V6.95h13.9zm0 4.176h-13.9v3.422h13.9zm-5.618 12.136h-1.152v11.92a19.9 19.9 0 004.861-3.745c-2.341-2.449-3.133-4.574-3.709-8.175zm1.3 0a11.42 11.42 0 004.285 5.582 19.789 19.789 0 002.2-5.582z"/><path data-name="パス 15" d="M146.011 32.734c-.288 1.116-.324 1.224-.793 1.224a19.214 19.214 0 01-4.357-1.332 16.045 16.045 0 01-6.518-4.718c-5.69 2.7-9 4.07-13.756 5.978-.432.648-.576.865-.936.865a.691.691 0 01-.5-.433l-1.873-5.473c1.945 0 3.205-.036 5.114-.18v-9.327h-5.942l-.432-.828h6.374V1.225l4.861 2.341h11.739l2.2-2.233a.74.74 0 01.576-.325 1.259 1.259 0 01.684.325l2.557 1.944a.933.933 0 01.324.612c0 .361-.324.505-.612.505h-17.76v4.141h11.055l1.837-2.341a.733.733 0 01.576-.324 1.072 1.072 0 01.648.288l2.377 2.089a.732.732 0 01.324.612c0 .36-.324.468-.612.468h-16.205v4.141h11.379l1.765-2.269a.8.8 0 01.576-.323 1.107 1.107 0 01.684.323l2.341 1.981a.753.753 0 01.324.612c0 .36-.288.5-.612.5h-16.457v4.214h15.736l1.945-2.377a.8.8 0 01.613-.324 1.019 1.019 0 01.648.324l2.521 2.089a.752.752 0 01.323.648c0 .36-.36.468-.612.468h-6.445l3.672 2.413c.252.144.325.288.325.432 0 .576-.613.576-.9.576a4.277 4.277 0 01-.9-.072c-.288.18-.54.324-2.881 1.656-.9.505-2.376 1.225-3.565 1.837a26.507 26.507 0 0011.631 3.349v.36a4.287 4.287 0 00-3.061 2.849zm-16.241-13.4h-2.809v8.823c3.313-.288 3.673-.324 6.986-.72a25.723 25.723 0 01-4.177-8.099zm1.3 0a15.874 15.874 0 005.438 6.23 23.774 23.774 0 002.989-6.23z"/><path data-name="パス 16" d="M169.558 30.033c2.485-.432 11.6-2.881 11.6-13.54 0-8.427-7.382-9.579-9.831-9.579a10.778 10.778 0 00-1.512.109 3.548 3.548 0 011.152 2.664c0 1.873-1.476 11.128-7.274 17.141-1.008 1.045-2.053 2.125-3.169 2.125a1.844 1.844 0 01-1.836-1.837c-.181-1.3-.252-1.764-.793-2.341-1.368-1.368-1.944-1.98-1.944-4.609 0-6.95 6.05-14.692 15.881-14.692 9.038 0 13.431 6.194 13.431 12.856 0 11.811-13.611 12.028-14.08 12.028a10.1 10.1 0 01-1.62-.109zm-10.011-10.731c0 .252.072 4.249 1.548 4.249 2.665 0 7.707-9.831 7.707-14.584a8.289 8.289 0 00-.217-1.692c-6.013 1.584-9.038 7.454-9.038 12.027z"/><path data-name="パス 17" d="M209.18 18.33h-5.114v12.028c0 1.44-.18 3.564-4.033 3.564-.648 0-1.081-.036-1.081-.54a3.588 3.588 0 00-.179-1.692c-.469-1.044-2.845-1.441-4.358-1.693l.072-.36c1.369.144 3.025.18 3.565.18 1.009 0 1.693 0 1.693-1.548v-6.482c-.252.576-1.081.792-1.549.864a21.779 21.779 0 01-6.734 8l-.216-.288c1.729-2.666 2.593-6.411 2.917-10.66l5.077 1.513c.325.107.433.18.505.324v-3.205h-7.85l-.433-.793h8.283v-5.221h-2.7a29.856 29.856 0 01-5.906 4.681l-.252-.288c3.2-3.2 5.51-7.994 6.842-15.376l6.014 1.44a.559.559 0 01.468.576.889.889 0 01-.576.828c2.989.181 5.546 1.513 5.546 4.141a1.95 1.95 0 01-1.981 2.089 1.887 1.887 0 01-2.125-1.764c-.288-1.4-.792-2.3-2.773-3.745a26.007 26.007 0 01-4.5 6.626h5.4l1.26-1.369c.18-.216.288-.36.576-.36.144 0 .217 0 .685.324l1.656 1.116a.7.7 0 01.324.613c0 .36-.324.468-.612.468h-2.053a2.3 2.3 0 01.109.432c0 .648-.649.864-1.081 1.008v3.781h.972l1.116-1.656a.667.667 0 01.577-.36c.144 0 .216 0 .684.324l2.053 1.4a.709.709 0 01.324.612c0 .36-.36.468-.612.468zm-1.189 9.111c-1.548 0-1.62-.973-1.8-3.386a7.924 7.924 0 00-1.837-3.853l.252-.324c1.729.5 5.69 1.621 5.69 5.006a2.345 2.345 0 01-2.305 2.557zm16.781 2.268a4.477 4.477 0 00-3.349 3.133c-.108.54-.252.684-.54.684-1.044 0-4.789-3.961-6.05-6.626a38.881 38.881 0 01-10.155 6.446l-.18-.324a37.763 37.763 0 008.895-8.535c-2.377-5.293-2.845-9.578-2.737-18.8h-1.909l-.431-.792h9.686l1.189-1.153a1.577 1.577 0 011.08-.612 1.954 1.954 0 011.188.576l2.269 1.8a1.072 1.072 0 01.5.828c0 .468-.144.576-1.224 1.549-.576 4.717-1.657 11.2-5.474 16.133a18.328 18.328 0 007.274 5.329zM211.916 5.687c-.035 7.886 2.053 13.36 3.529 15.269 2.089-4.79 2.593-10.048 2.665-15.269z"/><path data-name="パス 18" d="M262.244 21.858h-4.11v4.322c0 1.585-2.3 2.016-3.529 2.016-.9 0-.9-.467-.9-.972v-1.188h-5.114v5.15c0 1.044 0 2.88-4.393 2.88-1.62 0-1.62-.108-1.873-1.656a2.33 2.33 0 00-1.98-1.909c-2.089-.5-2.341-.612-2.629-.684v-.36c.648.036 3.637.216 4.717.216 1.261 0 1.513 0 1.513-.9v-2.737h-10.87l-.432-.828h11.307v-3.35h-13.756l-.432-.792h14.188v-3.205h-10.407l-.433-.792h10.84v-2.628h-4.97c0 .648 0 .972-.648 1.368a4.321 4.321 0 01-2.7.612c-1.008 0-1.008-.324-1.008-.864v-8.1l4.321 1.3h5.006V6.344h-13.18l-.432-.792h13.612v-4.43l4.862.361c.576.036.755.215.755.576 0 .324-.071.4-.972.936v2.557h6.7l1.945-2.341c.18-.216.288-.36.612-.36.252 0 .4.144.648.324l2.7 2.053a.941.941 0 01.36.648c0 .36-.324.468-.648.468h-12.318v2.413h4.573l1.513-1.4a1.372 1.372 0 01.72-.36 1.082 1.082 0 01.648.289l2.449 1.872a.671.671 0 01.252.576c0 .4-.108.468-1.152 1.26v3.062c0 .576 0 .864-.828 1.152l2.34 1.836c.073.073.325.288.325.5 0 .324-.433.649-1.3 1.4v2.124l1.368-2.2a.716.716 0 01.577-.324.938.938 0 01.648.324l1.8 1.872a.944.944 0 01.324.649c.003.362-.319.469-.609.469zM243.951 9.543h-4.97v4.106h4.97zm9.255 0h-4.61v4.106h4.61zm.648 6.122c-.648 0-.648-.4-.648-1.224h-4.61v2.628h5.006l1.332-1.548a10.1 10.1 0 01-1.08.144zm-.144 2.2h-5.114v3.205h5.114zm0 4h-5.114v3.35h5.114z"/><path data-name="パス 19" d="M281.894 8.607h-13.5l-.432-.829h8.679l1.62-1.98c.18-.216.288-.36.576-.36.18 0 .324.108.685.36l2.664 1.692a.82.82 0 01.324.649c-.008.324-.368.468-.616.468zm18.582 9.867h-4.394v12.027a2.869 2.869 0 01-.864 2.3 5.349 5.349 0 01-3.457 1.188c-1.261 0-1.261-.216-1.261-.648 0-1.476 0-1.981-.648-2.521-.468-.36-.54-.4-3.961-1.224l.072-.4c.792.072 1.909.072 2.7.072 1.08 0 2.521.18 2.521-1.152v-9.651h-12.067l-.432-.792h12.5v-5.006h-21.827l-.432-.828h6.878l1.477-1.873a.751.751 0 01.612-.324 1.233 1.233 0 01.648.324l2.233 1.621a.484.484 0 01.216.252h6.193V6.365h-5.8l-.432-.792h6.229V1.036l5.114.468c.468.036.792.108.792.612 0 .612-.684.828-1.26.972v2.485h2.52l1.549-1.8c.18-.215.288-.36.576-.36.216 0 .216.036.648.324l2.305 1.549a1.006 1.006 0 01.324.612c0 .36-.324.468-.612.468h-7.31v5.474h3.673l1.657-2.017a.714.714 0 01.576-.36c.252 0 .4.144.612.324l2.232 1.729a.748.748 0 01.325.684c0 .36-.325.468-.613.468h-3.349c0 .648-.252.828-.864 1.188v3.818h.108l1.4-1.729c.18-.216.288-.36.576-.36.216 0 .324.072.648.324l1.945 1.477a.764.764 0 01.324.611c.008.369-.282.477-.604.477zm-20.311-1.657h-10.7l-.432-.828h6.626l1.44-1.656a.733.733 0 01.577-.325c.18 0 .216 0 .648.288l2.125 1.441a.792.792 0 01.324.576c.001.36-.323.504-.612.504zm-.5-12.352h-10.091l-.432-.792h5.8l1.584-1.944c.18-.216.288-.36.576-.36.181 0 .325.072.649.323l2.2 1.657a.9.9 0 01.324.648c-.006.361-.33.468-.618.468zm.721 18.618v6.914c0 .72 0 1.08-1.369 1.621a4.177 4.177 0 01-1.765.323c-.864 0-.9-.431-.9-.755v-1.225h-2.7v1.98c0 .577-.036.865-.972 1.333a6.72 6.72 0 01-2.268.576c-.613 0-.937-.252-.937-1.3V18.362l4.214 2.052h2.556l1.116-1.44a.956.956 0 01.793-.324.963.963 0 01.612.252l2.125 1.692a1.39 1.39 0 01.468.972c-.009.365-.117.581-.981 1.521zm-4.033-1.836h-2.7v7.886h2.7zm10.226 6.049c-1.584 0-1.656-.72-1.8-2.448a5.615 5.615 0 00-3.133-4.538l.144-.36c4.861-.36 7.742 1.945 7.742 4.789-.008 2.485-2.708 2.557-2.961 2.557z"/><path data-name="パス 20" d="M324.071 15.161a5.316 5.316 0 00-1.332 3.24c.72-.288 3.889-1.512 4.537-1.8.144-.036 1.152-.468 1.152-1.152a1.091 1.091 0 00-.468-.793c-.144-.108-.288-.215-.288-.323 0-.217.432-.253.612-.253 2.053 0 4.394 1.837 4.394 3.89 0 .936-1.009.936-1.369.936a19.741 19.741 0 00-8.642 1.548c0 .432-.037 1.045 0 2.017.036.468.18 2.593.18 3.025a2.017 2.017 0 01-1.693 2.124 2.276 2.276 0 01-1.981-2.268c0-.54.325-2.953.361-3.457-3.493 1.837-4.934 3.277-4.934 4.9 0 2.485 2.629 3.061 5.294 3.061 1.62 0 1.944-.108 6.374-.936a3.664 3.664 0 01.828-.072c1.153 0 2.7.9 2.7 1.909a1.762 1.762 0 01-.972 1.476c-1.261.576-5.546.72-7.023.72-6.446 0-8.714-2.629-8.714-5.042 0-2.844 1.692-5.329 6.446-7.922-.144-1.728-.576-3.781-2.629-3.781-3.025 0-4.969 4.61-5.51 5.942-.288.72-.576 1.476-1.512 1.476-.972 0-1.621-.684-1.621-2.2 0-1.981.613-2.485 1.3-3.061 1.512-1.26 2.484-2.989 4.285-6.518a20.377 20.377 0 01-2.233.144 4.2 4.2 0 01-4.357-2.881c0-.072.036-.216.144-.216s.5.36.612.4a4.887 4.887 0 002.665.648 21.624 21.624 0 004.465-.864c.361-.72 1.837-4.177 1.837-5.474a1.638 1.638 0 00-1.332-1.62c-.217-.036-.325-.072-.325-.252 0-.433 1.009-.577 1.477-.577 2.088 0 4.429 2.089 4.429 3.278 0 .5-.252.684-.792 1.152-.468.36-.684.756-1.549 2.233a11.162 11.162 0 003.422-1.8 2.364 2.364 0 011.224-.288c1.152 0 2.629.756 2.629 1.693 0 .468-.288.864-1.189 1.3a37.528 37.528 0 01-8.03 2.664c-.324.649-1.981 3.6-2.2 4.214a8.1 8.1 0 013.781-1.513c1.189 0 2.017.612 3.565 2.593.217-.144 1.117-1.044 1.333-1.224a2.116 2.116 0 01.576-.36z"/><path data-name="パス 21" d="M356.987 10.335a1.746 1.746 0 00.576-1.152c0-.288-.072-.4-.576-.9-.324-.324-.36-.361-.36-.468 0-.181.216-.216.324-.216 3.241 0 5.546 3.457 5.546 4.321 0 .5-.721.576-1.333.648a4.485 4.485 0 00-.756.252c-10.155 4.465-10.407 4.574-14.62 5.258-.037 1.3-.145 6.518.54 7.526 1.044 1.476 2.448 1.548 4.177 1.548a37.414 37.414 0 008.823-1.26 3.558 3.558 0 011.692-.324c.612 0 3.349.684 3.349 2.3 0 .36 0 .72-1.872 1.476-1.873.792-5.69.828-7.131.828-5.545 0-9.327-.4-11.055-1.981-1.585-1.476-1.585-5.581-1.585-8.894 0-.864.073-4.754.073-5.546 0-1.656 0-6.77-.937-7.778a4.843 4.843 0 00-1.692-1.188.239.239 0 01-.144-.181c0-.251.9-.54 1.764-.54 2.773 0 5.474 1.909 5.474 3.025a2.014 2.014 0 01-.36 1.009c-.72 1.44-1.009 6.841-1.08 8.714 7.128-2.767 9.252-4.352 11.163-6.477zm11.127-4.393a2.981 2.981 0 01-2.989 2.989 3.052 3.052 0 01-3.1-2.989 3.175 3.175 0 013.241-3.1 3 3 0 012.846 3.1zm-5.293 0a2.245 2.245 0 002.3 2.161 2.144 2.144 0 002.161-2.161 2.184 2.184 0 00-2.017-2.269 2.367 2.367 0 00-2.446 2.269z"/><path data-name="パス 22" d="M377.827 16.529c2.268 0 13.36-.648 15.881-.756.323 0 1.836-.468 2.2-.468 1.08 0 3.673 1.728 3.673 3.1 0 .541-.612.973-1.368.973-.433 0-1.261-.108-1.873-.18a49.81 49.81 0 00-5.978-.54c-1.3 0-10.515.684-11.667.864-.4.036-2.233.648-2.7.648s-3.673-1.08-3.925-5.906c1.076 1.041 2.3 2.265 5.757 2.265z"/><path data-name="パス 23" d="M404.427 30.825a25.994 25.994 0 0014.044-10.443 15.211 15.211 0 00-4.825-4.5 20.86 20.86 0 01-8.283 4.825l-.144-.288c5.15-3.349 10.047-11.7 10.047-13.936a2.808 2.808 0 00-.324-.972 7.6 7.6 0 01-.648-.972c0-.325.288-.361.5-.361a5.218 5.218 0 013.745 1.981c.36.4 1.368 1.512 1.368 2.053 0 .144-.035.252-.431.468-.145.108-.721.4-.793.468.288.036 1.729.072 2.017.072a9.723 9.723 0 002.7-.54c1.4-.972 1.549-1.08 2.017-1.08.72 0 1.585.9 2.125 1.44s1.548 1.548 1.548 2.052c0 .325-.144.469-1.44 1.261-.648.432-.72.576-1.225 1.873a26.614 26.614 0 01-3.349 6.121 7.571 7.571 0 011.261 3.386c0 .359-.288 1.908-1.513 1.908-1.368 0-1.8-.792-2.484-2.017-2.989 3.205-8.571 7.311-15.917 7.49zm18.87-19.373c0-.217-.108-.288-.289-.288-.5 0-2.773.4-3.313.4a3.832 3.832 0 01-2.016-.973 40.009 40.009 0 01-3.493 4.718 18.982 18.982 0 016.013 2.485c1.621-2.741 3.098-5.807 3.098-6.342z"/><path data-name="パス 24" d="M441.116 16.529c2.268 0 13.359-.648 15.88-.756.325 0 1.837-.468 2.2-.468 1.08 0 3.673 1.728 3.673 3.1 0 .541-.612.973-1.369.973-.431 0-1.26-.108-1.872-.18a49.791 49.791 0 00-5.978-.54c-1.3 0-10.515.684-11.667.864-.4.036-2.233.648-2.7.648s-3.673-1.08-3.925-5.906c1.076 1.041 2.301 2.265 5.758 2.265z"/><path data-name="パス 25" d="M477.483 17.609a3.5 3.5 0 01-3.493 3.494 3.474 3.474 0 01-3.493-3.494 3.5 3.5 0 013.493-3.493 3.5 3.5 0 013.493 3.493z"/><path data-name="パス 26" d="M488.837 31.582c6.158-2.377 11.2-6.482 14.188-14.476a32.554 32.554 0 001.729-6.735c0-.216-.109-.36-.541-.36a91.824 91.824 0 00-11.919 2.341 10.967 10.967 0 01-1.261.468A5.586 5.586 0 01487 7.634c0-.468.036-.576.18-.576s.54.612.649.72a3.309 3.309 0 002.628 1.225c1.873 0 14.333-1.225 15.269-1.728.18-.109.828-.613.972-.685a1.335 1.335 0 01.54-.144c1.152 0 3.817 2.917 3.817 3.493 0 .5-.143.576-1.476 1.369a3.057 3.057 0 00-1.189 1.944c-3.421 11.056-8.858 17.682-19.553 18.618zM513.36 6.05c0 .792-.468 1.3-1.009 1.3-.756 0-1.187-.684-1.548-1.332a11.692 11.692 0 00-3.924-3.673c3.312-.148 6.481 1.797 6.481 3.705zM510.551 0c1.836 0 5.906 1.116 5.906 3.313 0 .793-.4 1.189-1.117 1.189-.54 0-1.116-.648-1.368-1.009-1.26-1.548-1.476-1.836-4.573-3.385A5.218 5.218 0 01510.551 0z"/><path data-name="パス 27" d="M519.812 30.465c6.914-5.041 7.994-11.775 7.994-17 0-1.224 0-3.889-.72-4.573-.217-.18-1.44-.756-1.44-1.008 0-.4 1.8-.505 2.051-.505 2.27 0 4.97 2.341 4.97 2.773 0 .252-.828 1.009-.864 1.189-.144.468-.5 4.645-.612 5.509a15.767 15.767 0 01-6.518 11.668 13.937 13.937 0 01-4.682 2.268zm32.733-15.484c-2.953 6.481-9.867 10.767-11.6 11.775a3.146 3.146 0 00-1.259 1.117c-.613 1.044-.685 1.152-1.153 1.152-1.4 0-3.961-4.141-3.961-4.862a8.06 8.06 0 01.5-1.3c.361-1.332.361-7.454.361-9.183a38.575 38.575 0 00-.253-5.942 2.378 2.378 0 00-1.08-1.44c-.18-.108-1.189-.5-1.189-.72 0-.5 1.045-.828 1.837-.828 2.053 0 5.33 2.016 5.33 3.061a7.9 7.9 0 01-.612 1.224c-.433 1.008-.829 6.914-.829 11.6 0 2.341 0 2.629.936 2.629 3.026 0 10.119-5.546 12.82-8.39z"/><path data-name="パス 28" d="M563.081 18.15a1.3 1.3 0 01-1.224 1.44 1.583 1.583 0 01-1.584-1.044 11.665 11.665 0 00-3.242-4.826c3.062.288 6.05 2.413 6.05 4.43zm-2.016 13.648c10.3-4.069 13.288-15.053 13.288-18.042 0-.936-.145-1.116-1.3-2.448 4.286.216 5.474 3.025 5.474 3.313 0 .323-.18.432-.684.792-.216.144-.4.4-.721 1.548a24.319 24.319 0 01-4.933 9.435c-4.322 4.321-7.058 5.438-11.055 5.69zm7.922-15.341a1.313 1.313 0 01-1.224 1.477 1.654 1.654 0 01-1.585-1.045 11.4 11.4 0 00-3.24-4.861c3.06.324 6.049 2.449 6.049 4.429z"/><path data-name="パス 29" d="M586.109 30.898c6.122-2.377 11.236-6.05 14.729-12.424a24.437 24.437 0 002.485-6.338c0-.216-.108-.288-.253-.288-.107 0-2.952.612-3.492.684a9.686 9.686 0 01-1.549.144 3.4 3.4 0 01-2.16-.828c-2.269 3.565-7.6 7.85-11.416 8.678l-.107-.251c7.166-4.9 9.9-13.252 9.9-14.369a1.514 1.514 0 00-.432-1.08c-.036-.036-.576-.541-.576-.576 0-.253.54-.253.684-.253 2.808 0 5.51 2.161 5.51 3.422 0 .4-.361.54-1.008.828-.721.288-.793.4-1.441 1.656a4.452 4.452 0 001.657.36 13.875 13.875 0 005.221-1.584c1.153-.864 1.3-.937 1.584-.937.685 0 1.549.793 2.917 2.089.973.937 1.117 1.045 1.117 1.477 0 .72-.4.9-1.693 1.44a7.75 7.75 0 00-.756 1.368c-6.158 12.856-13.252 16.421-20.886 17.141z"/><path data-name="パス 30" d="M619.972 29.133c-.143.972-.252 1.476-.828 1.476-.36 0-.576-.324-.756-.72l-2.3-5.51c1.548-.5 2.2-.72 3.169-1.116V3.133l5.149.5a.7.7 0 01.648.648c0 .217-.108.324-1.081 1.153v15.953a224.134 224.134 0 0013.361-6.122l.216.288c-3.173 3.461-9.404 7.998-17.578 13.58zm25.928 3.709c-2.232 0-2.52-2.269-2.593-2.989-.215-2.737-.288-3.205-1.44-4.393a13.97 13.97 0 01-3.241 3.421c-4.933 3.961-14.044 4.177-16.889 4.177v-.36c11.2-1.909 16.6-6.77 18.294-15.413.684-3.457.684-7.85.647-15.16l5.258.576a.857.857 0 01.864.792c0 .5-.288.72-1.295 1.4.071 6.914.143 13.576-2.629 18.869 4.069 1.585 5.545 4 5.545 6.23a2.56 2.56 0 01-2.521 2.85zM633.009 12.1c-2.233 0-2.593-1.873-2.809-3.241-.576-3.385-1.152-5.906-4.609-7.094v-.361a10.183 10.183 0 011.295-.071c4.539 0 9.183 3.349 9.183 7.346a3.1 3.1 0 01-3.06 3.421z"/><path data-name="パス 31" d="M686.395 18.258h-13.072c1.656 3.637 6.229 7.346 13.54 9v.36a4.683 4.683 0 00-3.1 3.745c-.181.865-.181.973-.4.973-1.08 0-8.21-4.285-10.7-12.172v12.172c0 1.656-2.917 1.873-3.169 1.873-1.223 0-1.44-.649-1.44-1.189V22.793a29.762 29.762 0 01-14.4 9.471l-.18-.36a32.314 32.314 0 0011.56-13.648h-10.8l-.432-.793h14.26V6.912h-12.024l-.432-.828h12.459V1.006l5.33.433a.6.6 0 01.648.612c0 .4-.108.612-1.369 1.224v2.809h6.591l1.908-2.232c.18-.217.288-.361.577-.361.251 0 .36.108.648.324l2.52 1.981a.866.866 0 01.325.612c0 .36-.288.5-.613.5h-11.956v10.551h.937a32.256 32.256 0 002.484-9.29l5.8 1.836c.324.108.576.288.576.648 0 .72-.54.72-1.475.72-.866.865-5.078 5.186-6.122 6.086h5.8l2.088-2.448a.651.651 0 01.577-.325c.251 0 .36.109.648.325l2.737 2.16a.889.889 0 01.288.577c-.007.365-.257.51-.617.51zm-22.615-1.585a1.99 1.99 0 01-2.2-2.16c-.145-4-2.521-5.618-3.278-6.014l.109-.4c4.861 0 7.958 2.953 7.958 5.221.004 1.697-1.004 3.353-2.589 3.353z"/><path data-name="パス 32" d="M706.858 30.033c2.485-.432 11.595-2.881 11.595-13.54 0-8.427-7.382-9.579-9.831-9.579a10.81 10.81 0 00-1.513.109 3.546 3.546 0 011.153 2.664c0 1.873-1.477 11.128-7.274 17.141-1.008 1.045-2.052 2.125-3.169 2.125a1.844 1.844 0 01-1.836-1.837c-.18-1.3-.252-1.764-.792-2.341-1.369-1.368-1.945-1.98-1.945-4.609 0-6.95 6.049-14.692 15.88-14.692 9.039 0 13.433 6.194 13.433 12.856 0 11.811-13.613 12.028-14.08 12.028a10.1 10.1 0 01-1.621-.109zm-10.011-10.731c0 .252.072 4.249 1.549 4.249 2.664 0 7.706-9.831 7.706-14.584a8.431 8.431 0 00-.216-1.692c-6.011 1.584-9.035 7.454-9.035 12.027z"/><path data-name="パス 33" d="M760.035 17.394c-.143.828-.179 1.007-.576 1.007s-2.845-.792-5.869-3.492c-.036.324-.36.4-.612.4h-4.61a.86.86 0 01.072.324c0 .288-.18.432-.756.792v6.194h3.781l1.98-2.449a.638.638 0 01.577-.324 1.117 1.117 0 01.648.324l2.341 2.125a.861.861 0 01.36.684c0 .36-.324.468-.612.468h-9.075v8.571h7.236l2.053-2.665a.777.777 0 01.612-.36 1.014 1.014 0 01.647.324l2.774 2.377a.809.809 0 01.324.648c0 .36-.324.468-.612.468h-30.86l-.432-.792h13.432v-8.571h-9.975l-.432-.828h10.407v-7.31h-6.049a26.536 26.536 0 01-8.571 3.709l-.144-.324c8.318-4.249 12.315-13.612 13.9-17.826l6.194 1.477c.324.072.864.36.864.756 0 .469-.323.72-.9 1.045 3.529 6.481 10.551 8.534 14.369 9.578v.4a4.205 4.205 0 00-2.486 3.27zM747.144 4.465h-.361c-3.384 4.646-5.725 7.635-8.858 10.048h10.371l1.4-2.2a.686.686 0 01.576-.36 1.223 1.223 0 01.685.324l.5.432a24.2 24.2 0 01-4.313-8.244z"/><path data-name="パス 34" d="M798.96 20.526v11.38c0 2.124-2.2 2.124-2.7 2.124-.935 0-1.008-.215-1.008-.72 0-1.765 0-1.909-.9-2.053 0 .4 0 .541-.252.757a2.942 2.942 0 01-1.8.612c-.648 0-.972-.108-.972-.864V24.02h-1.048v7.418c0 .54 0 .792-.324.936a4.71 4.71 0 01-1.837.5c-.9 0-.9-.468-.9-1.152v-7.706h-1.045v8.714c0 .972-1.692 1.3-2.3 1.3-.756 0-1.008-.288-1.008-.792v-6.842a15.158 15.158 0 01-6.483 7.419l-.252-.325a14.946 14.946 0 003.566-6.3 1.973 1.973 0 01-1.621 1.007 1.454 1.454 0 01-1.405-1.512c0-.324.109-1.692.109-1.98a6.277 6.277 0 00-.721-3.134v11.016c0 .468 0 .54-.143.648a4.378 4.378 0 01-2.3.72c-1.3 0-1.3-.36-1.3-.972V22.792a3.061 3.061 0 01-.432.18 20.565 20.565 0 01-4.321 8.57l-.324-.215a45.683 45.683 0 00.973-10.444l4.1 1.045v-2.441c-1.044.36-1.152.4-2.2.72-.144.613-.252.937-.685.937a.622.622 0 01-.611-.541l-1.225-4.717c.468 0 2.485.072 2.881.072a25.913 25.913 0 005.581-9.831l4.79 2.089.072.036V5.659l4.034 1.945h9.47l1.117-1.369a1.035 1.035 0 01.755-.36 1.465 1.465 0 01.613.18l2.556 1.909a.609.609 0 01.288.54 2.45 2.45 0 01-1.007 1.584v4.358c0 1.152-2.3 1.44-2.845 1.44-.4 0-1.405 0-1.405-.756v-.757h-9.651v2.521l1.441.9h9.218l1.008-1.045a.816.816 0 01.685-.252 1.137 1.137 0 01.576.18l1.872 1.549a.814.814 0 01.289.684c.002.428-.179.677-.969 1.616zM776.776 4.287a19.688 19.688 0 01-4.249 4 2.829 2.829 0 01.971 2.232 2.592 2.592 0 01-2.412 2.629c-1.585 0-1.621-1.369-1.692-2.809a4.958 4.958 0 00-2.125-3.961l.216-.324a10.881 10.881 0 014.033 1.476 29.649 29.649 0 001.261-6.41l5.077 2.017c.252.108.5.252.5.5.004.613-.608.613-1.58.65zm-1.044 8.859a25.891 25.891 0 01-3.89 2.809c2.341-.036 2.881-.036 5.294-.252a5.978 5.978 0 00-1.404-2.559zm5.185-3.781a4.2 4.2 0 01-1.333.072 21 21 0 01-3.241 3.2c1.189.5 4.466 2.161 4.466 5.221 0 1.225-.612 2.665-1.98 2.665a1.362 1.362 0 01-1.4-1.4c0-.252.072-1.476.072-1.728a8.627 8.627 0 01-1.441.611v2.737c1.729.9 4.069 2.521 3.926 5.258a40.022 40.022 0 00.936-7.094zm19.266-5.113h-20.274l-.433-.793h15.522l1.728-1.872c.18-.216.288-.36.576-.36.216 0 .252.036.648.288l2.485 1.656a.7.7 0 01.359.612c0 .359-.323.467-.611.467zm-5.69 4.177h-9.651v5.149h9.651zm-7.274 10.155h-1.045v4.609h1.045zm4.1 0h-1.039v4.609h1.044zm4.285 0h-1.26v4.609h1.26zm0 5.438h-1.26v6.589c.756.037.828.037 1.044-.036.216-.108.216-.215.216-1.224z"/><path data-name="パス 35" d="M837.998 26.9h-6.122v5.618c0 .864-2.016 1.476-2.665 1.476s-1.188-.252-1.188-.864V26.9h-9.863l-.288-.5a23.824 23.824 0 01-11.524 7.995l-.108-.361a26.363 26.363 0 006.8-6.445c-1.259-.361-1.259-1.4-1.259-2.485 0-.721 0-.757-.613-1.621a17.639 17.639 0 01-5.149 2.989l-.145-.36a20.5 20.5 0 005.186-9.725h-5.041l-.433-.828h6.338v-4.5h-2.881l-.359-.685a21.911 21.911 0 01-2.665 1.513l-.252-.288a22.5 22.5 0 005.222-10.84l5.4 1.477c.468.144.72.468.72.684a.573.573 0 01-.5.54c-.18.072-1.044.288-1.261.36-.287.468-.576.829-.863 1.261h17.392l1.657-2.161a.682.682 0 01.576-.324c.217 0 .252 0 .684.288l2.845 1.873a.8.8 0 01.36.612c0 .36-.288.5-.612.5h-3.888c.107.108.143.18.143.216 0 .54-.72.792-1.08.9v2.629l1.08-1.332c.144-.18.252-.361.576-.361a1 1 0 01.649.325l2.124 1.692a.815.815 0 01.36.612c0 .4-.36.5-.648.5h-4.143v4.5h.216l1.62-2.125a.714.714 0 01.576-.36.934.934 0 01.649.324l2.413 1.837a.849.849 0 01.359.648c0 .36-.323.5-.611.5h-4.822a.6.6 0 01-.179.648 8.781 8.781 0 01-.9.721v1.728h1.189l1.224-1.728a.685.685 0 01.577-.36c.252 0 .395.108.683.323l1.837 1.441a.822.822 0 01.4.648c0 .4-.361.5-.613.5h-5.294v5.762h1.369l1.657-2.017a.6.6 0 01.576-.36c.144 0 .288.037.647.325l2.125 1.728a.86.86 0 01.361.648c-.008.375-.296.519-.621.519zM811.926 7.887a19.812 19.812 0 01-2.988 2.34h2.988zm2.81 11.811a21.441 21.441 0 01-2.2 2.557 3.434 3.434 0 012.844 1.26 17.661 17.661 0 001.189-3.817zm13.287-3.313h-13.648l2.161.792c.288.108.4.144.4.4 0 .181-.036.325-.216.4a6.63 6.63 0 01-.9.288c-.072.108-.4.54-.469.612h1.657l.828-.865a1.289 1.289 0 01.972-.432 1.555 1.555 0 01.612.217l2.558 1.908v-1.944l3.961 1.728h2.088zM817.581 5.87h-1.585v4.357h1.585zm0 5.186h-1.585v4.5h1.585zm4.393 9.974c-.217.181-.757.54-1.117.793a20.9 20.9 0 01-2.736 4.249h3.853zm1.152-15.16h-1.621v4.357h1.621zm0 5.186h-1.621v4.5h1.621zm4.9 9.254h-2.376v5.762h2.376zm.684-14.44h-1.728v4.357h1.728zm0 5.186h-1.728v4.5h1.728z"/><path data-name="パス 36" d="M873.617 17.465a2.588 2.588 0 01-2.377-1.764c-.216-.468-1.008-2.593-1.189-3.025-1.548.324-8.5 1.909-9.938 2.2-1.549.324-8.463 1.584-9.9 1.872l3.925 1.693h13.757l1.008-1.189a1.624 1.624 0 011.116-.5 2.382 2.382 0 011.009.324l2.557 1.837a.873.873 0 01.36.684 1.132 1.132 0 01-.433.9 6.726 6.726 0 00-.719.792v10.516c0 1.332-2.053 2.088-3.062 2.088-.72 0-1.765-.144-1.765-1.044v-1.981h-14.08v1.045a1.123 1.123 0 01-.359.936 4.058 4.058 0 01-2.7 1.152c-1.765 0-1.945-.432-1.945-1.3v-15.7c-.4.072-.756.109-1.081.144-.215.324-.576.829-.935.829a.528.528 0 01-.576-.433l-1.658-5.653c1.189-.036 6.447-.18 7.527-.18a102.927 102.927 0 004.321-10.8l6.194 1.873a.912.912 0 01.684.72c0 .469-.4.576-1.477.684a74.711 74.711 0 01-7.2 7.455c3.709-.108 11.163-.288 14.584-.4a18.024 18.024 0 00-5.546-4.969l.109-.36c8.1.756 12.495 5.581 12.495 8.75a2.791 2.791 0 01-2.706 2.804zm-5.655 1.837h-14.08v10.585h14.078z"/><path data-name="パス 37" d="M894.147 4.609a45.463 45.463 0 01-2.737 5.618l.432.4a.914.914 0 01.4.649c0 .5-.54.792-1.009 1.08V32.27c0 1.656-3.024 1.692-3.1 1.692-1.549 0-1.549-.756-1.549-1.224V16.785a16.227 16.227 0 01-5.041 3.817l-.215-.288a42.952 42.952 0 007.49-19.014l6.121 1.657c.324.072.793.288.793.756s-.181.5-1.585.896zm15.881 28.377h-6.05c-5.689 0-5.978-2.628-5.978-5.438V1.369l5.438.576c.288.036.756.18.756.648 0 .5-.649.684-1.584.973v12.747a51.127 51.127 0 005.941-9.939l5.294 2.737a.762.762 0 01.468.648c0 .648-.72.648-1.08.648h-.576a50.046 50.046 0 01-10.047 8.427v7.994c0 1.945 1.368 1.945 2.341 1.945h3.961a2.5 2.5 0 002.52-1.225 42.62 42.62 0 002.484-6.266h.361l-.613 6.374c-.036.505.109.757 1.045 1.4a1.386 1.386 0 01.756 1.224c0 2.707-3.745 2.707-5.437 2.707z"/></g></g></svg>