<svg xmlns="http://www.w3.org/2000/svg" width="370" height="85"><g data-name="アウトライン化テキスト(見出しミンM31)"><g data-name="2020年7月4日〜7日なかのZERO大ホール" fill="#fff"><path data-name="パス 38" d="M13.542 18.803c-4.83 5.3-4.877 5.345-9.238 10.5h8.627c1.736 0 4.174 0 5.252-3.188h1.173l-1.36 8.581H.224v-3C2.1 29.117 4.21 26.163 7.962 20.724c3.938-5.721 5.111-8.581 5.111-11.161 0-3.376-2.673-4.548-4.83-4.548-4.455 0-5.861 3.658-6.612 5.58l-1.078-.422a15.7 15.7 0 011.594-5.252 9.161 9.161 0 018.159-4.923c5.064 0 9.1 3.517 9.1 8.534-.008 2.44-.664 4.504-5.864 10.271z"/><path data-name="パス 39" d="M36.978 35.167c-5.392 0-9.565-6.048-9.565-17.583 0-11.816 4.36-17.537 9.565-17.537 5.3 0 9.566 5.861 9.566 17.537-.002 11.769-4.314 17.583-9.566 17.583zm1.266-32.963a1.579 1.579 0 00-1.266-.844c-1.219 0-1.876 2.016-2.016 2.438-.8 2.438-1.172 12.192-1.172 15.521 0 2.626.234 14.536 3.188 14.536 1.219 0 1.829-1.97 1.97-2.438.469-1.407 1.219-6.612 1.219-13.833 0-3.423-.188-12.942-1.925-15.38z"/><path data-name="パス 40" d="M67.922 18.803c-4.83 5.3-4.876 5.345-9.238 10.5h8.628c1.736 0 4.173 0 5.252-3.188h1.172l-1.359 8.581H54.605v-3c1.875-2.579 3.986-5.533 7.737-10.972 3.939-5.721 5.111-8.581 5.111-11.161 0-3.376-2.673-4.548-4.83-4.548-4.454 0-5.862 3.658-6.612 5.58l-1.078-.422a15.721 15.721 0 011.594-5.252 9.161 9.161 0 018.159-4.923c5.065 0 9.1 3.517 9.1 8.534-.003 2.44-.659 4.504-5.864 10.271z"/><path data-name="パス 41" d="M91.469 35.167c-5.393 0-9.565-6.048-9.565-17.583 0-11.816 4.36-17.537 9.565-17.537 5.3 0 9.565 5.861 9.565 17.537 0 11.769-4.313 17.583-9.565 17.583zm1.266-32.963a1.581 1.581 0 00-1.266-.844c-1.219 0-1.876 2.016-2.017 2.438-.8 2.438-1.171 12.192-1.171 15.521 0 2.626.234 14.536 3.188 14.536 1.219 0 1.829-1.97 1.97-2.438.468-1.407 1.218-6.612 1.218-13.833 0-3.423-.187-12.942-1.922-15.38z"/><path data-name="パス 42" d="M140.478 27.243h-11.131v8.17c0 .749-.393 1.034-1.177 1.39a7.005 7.005 0 01-2.283.607c-1 0-1.32-.392-1.32-.963v-9.2h-15.8l-.429-.821h5.708V15.577l4.852 2.14h5.673v-7.134h-7.35a25.454 25.454 0 01-8.812 8.24l-.249-.285a32.871 32.871 0 006.315-14.02l5.564 1.391c.358.107.643.214.643.535 0 .428-.214.5-1.213.785-.428.678-.785 1.213-1.713 2.568h15.447l2.427-2.675a.66.66 0 01.607-.321.859.859 0 01.606.321l2.818 2.355a.851.851 0 01.357.642c0 .357-.321.464-.643.464h-9.6a.638.638 0 01.321.535c0 .392-.357.535-.749.713v5.882h3l2.1-2.461c.179-.214.286-.357.572-.357a.933.933 0 01.641.321l2.5 2.176a.86.86 0 01.322.643c0 .356-.322.463-.607.463h-8.526v7.92h4.78l2.5-3.068c.179-.214.286-.356.608-.356a.926.926 0 01.606.32l2.925 2.783a.85.85 0 01.356.678c-.005.325-.361.468-.646.468zm-15.911-8.741h-5.958v7.92h5.958z"/><path data-name="パス 43" d="M160.8 16.74a67.917 67.917 0 00-1.97 17.959h-6.8c.609-10.6 5.252-19.553 11.16-28.838h-8.019c-4.454 0-5.158 2.345-6 5.111h-1.172l1.547-10.5h17.631v3.041A36.846 36.846 0 00160.8 16.74z"/><path data-name="パス 44" d="M199.872 9.976v23.153a2.66 2.66 0 01-1 2.461 6.925 6.925 0 01-3.888 1.107c-1.107 0-1.142-.108-1.178-.857-.178-2.354-1.926-2.782-4.709-3.46v-.357c.071 0 3.925.214 4.674.214 1.07 0 1.391-.606 1.391-1.605v-7.456h-10.381c-.643 5.53-3.461 11.13-10.56 13.842l-.214-.321c3.6-2.676 4.994-6.636 5.743-10.846.607-3.282.607-4.352.607-20.549l4.816 1.927h9.775l1.32-1.5a1.467 1.467 0 011.106-.463 1.412 1.412 0 01.963.428l2.426 2.069a.839.839 0 01.321.678c-.002.358-.073.393-1.212 1.535zm-4.709 5.494h-10.06c0 2 0 4.994-.214 6.921h10.274zm0-7.456h-10.06v6.671h10.06z"/><path data-name="パス 45" d="M226.198 26.634v4.642c0 1.734.891 2.2 3 2.2v1.219h-12.05v-1.219h.7a2.043 2.043 0 002.345-2.2v-4.642h-9.894v-1.736l14.4-24.851h1.5v24.851h3.048v1.736zm-6-15.474l-7.972 13.738h7.972z"/><path data-name="パス 46" d="M261.793 10.476V33.95c0 1.07-2.319 2.033-3.675 2.033a1.166 1.166 0 01-1.32-1.177v-2.248H244.49v1.463c0 1.855-3.139 2.426-3.817 2.426-1.142 0-1.142-.749-1.142-1.356V5.445l5.067 2.319h12.165l1.355-1.463a1.535 1.535 0 011.178-.642 1.823 1.823 0 011.106.464l2.319 1.855a.9.9 0 01.428.785c0 .392-.036.678-1.356 1.713zm-4.995-1.892H244.49v11.129h12.308zm0 11.952H244.49v11.2h12.308z"/><path data-name="パス 47" d="M302.948 20.269c-.928 1.391-5.1 4.923-8.955 4.923-2.247 0-5.208-1.356-7.456-2.5-4.995-2.533-6.529-2.569-8.027-2.569a11.055 11.055 0 00-6.743 2.355l-.5-.571c.928-1.392 5.065-4.923 8.919-4.923 2.283 0 5.244 1.355 7.491 2.5 4.994 2.533 6.528 2.568 8.028 2.568a11.119 11.119 0 006.742-2.354z"/><path data-name="パス 48" d="M323.136 16.74a67.875 67.875 0 00-1.969 17.959h-6.8c.609-10.6 5.252-19.553 11.16-28.838h-8.019c-4.454 0-5.158 2.345-6 5.111h-1.171l1.546-10.5h17.631v3.041a36.846 36.846 0 00-6.378 13.227z"/><path data-name="パス 49" d="M361.596 10.476V33.95c0 1.07-2.319 2.033-3.674 2.033a1.166 1.166 0 01-1.321-1.177v-2.248h-12.305v1.463c0 1.855-3.14 2.426-3.818 2.426-1.141 0-1.141-.749-1.141-1.356V5.445l5.066 2.319h12.165l1.356-1.463a1.532 1.532 0 011.177-.642 1.823 1.823 0 011.106.464l2.319 1.855a.9.9 0 01.428.785c-.003.392-.039.678-1.358 1.713zm-5-1.892h-12.3v11.129h12.3zm0 11.952h-12.3v11.2h12.3z"/><path data-name="パス 50" d="M17.326 56.352c.76.038 2.166.228 2.166 1.216a1.75 1.75 0 01-.57 1.064c-1.825 1.937-4.978 2.811-7.828 3.571-4.71 10.335-5.546 12.158-6.952 14.742-1.406 2.508-1.634 2.888-2.28 2.888-1.6 0-1.862-1.786-1.862-2.47 0-1.1.38-1.672 1.368-3.04a62.127 62.127 0 006.269-11.322 7.662 7.662 0 01-1.253.114 4.215 4.215 0 01-3.154-1.216 6.941 6.941 0 01-1.634-3.3.2.2 0 01.228-.228q.114 0 .228.228a4.759 4.759 0 003.685 1.444 15 15 0 003.306-.494c.95-2.66 1.14-3.533 1.14-4.407a2.025 2.025 0 00-1.292-1.976c-.341-.19-.341-.343-.341-.418 0-.532.987-.532 1.367-.532 3.229 0 5.092 2.279 4.977 3.42a4.586 4.586 0 002.432.716zm-.95 17.516a24.691 24.691 0 01-.646-4.218c0-3.305 1.785-5.205 6.079-5.205.228 0 1.178.076 1.367.038.115-.038.191-.114.191-.19 0-.684-4.142-1.862-5.7-1.862-.494 0-.684 0-.684-.152 0-.418 2.621-1.216 5.053-1.216 4.141 0 7.029 2.052 7.029 3.572 0 .266-.152 1.558-1.368 1.558a8.727 8.727 0 01-1.6-.266 10.591 10.591 0 00-3.039-.57c-3.305 0-3.609 2.432-3.609 3.154 0 1.747 1.025 6.686 1.367 6.953a25.544 25.544 0 002.812 1.1c2.242.95 3.914 2.128 3.914 4.028 0 .912-.456 1.671-1.445 1.671a4.136 4.136 0 01-2.09-1.1 6.809 6.809 0 00-3.267-1.862c.076 2.811-2.887 4.483-6.079 4.483-.608 0-6.877-.228-6.877-4.635 0-4.1 5.168-4.483 7.181-4.483.608 0 .988.037 1.52.075-.033-.342-.033-.455-.109-.873zm-3 6.915c.873 0 3.533-.114 3.533-2.66a.743.743 0 00-.152-.532 7.009 7.009 0 00-3.534-.8c-2.735 0-3.989 1.026-3.989 1.938-.001 1.711 3.191 2.054 4.141 2.054zm1.861-24.165c0-.418-.114-.494-.57-.722-.949.608-1.1.684-1.976 2.621 1.861-.642 2.545-.911 2.545-1.899z"/><path data-name="パス 51" d="M43.814 75.844a12.07 12.07 0 004.484 1.6 2.118 2.118 0 001.785-.912c.912-1.139 2.356-5.281 2.356-9.308 0-1.407 0-3.457-1.976-3.457a9.9 9.9 0 00-2.736.645c-1.443 3.419-6.877 15.122-7.864 16.489a2.039 2.039 0 01-1.6 1.027c-.95 0-1.748-1.292-1.748-2.812a3.457 3.457 0 011.026-2.508 33 33 0 006.422-10.866c-.418.151-1.749.646-2.015.76-.76.418-1.026.569-1.4.569a5.411 5.411 0 01-3.61-2.735 5.7 5.7 0 01-.646-1.786c0-.19.038-.266.19-.266a2 2 0 01.456.114c1.938 1.026 2.128 1.14 2.888 1.14a46.589 46.589 0 005.281-1.292 30.566 30.566 0 001.064-5.585 2.09 2.09 0 00-1.634-2.241c-.152-.038-.418-.076-.418-.3 0-.38 1.786-.874 2.926-.874 1.9 0 4.179 1.9 4.179 3.382 0 .532-.076.532-.836 1.254-.608.532-1.064 1.975-1.633 3.724.38-.039 1.291-.191 1.823-.191 3.8 0 4.977 3.078 4.977 7.3 0 5.852-2.622 13.83-6.573 13.83-1.4 0-1.823-.456-1.823-1.367 0-.114.075-.609.075-.685 0-.8-1.063-2.127-1.975-2.925a18.109 18.109 0 01-1.6-1.444zm15.159-5.852c2.737-.684 3.535-1.1 3.535-2.2s-.609-3.762-3.648-6.535c-.342-.342-2.28-1.748-2.28-1.863s.114-.227.3-.227a19.286 19.286 0 015.662 2.621 10.209 10.209 0 014.711 8.436c0 1.823-.989 2.393-1.71 2.393s-.913-.19-1.634-1.1c-.836-.988-1.976-1.14-4.94-1.14z"/><path data-name="パス 52" d="M88.6 81.275c2.621-.456 12.234-3.039 12.234-14.285 0-8.892-7.789-10.107-10.373-10.107a11.608 11.608 0 00-1.6.114 3.744 3.744 0 011.216 2.811c0 1.976-1.557 11.741-7.675 18.086-1.063 1.1-2.165 2.242-3.343 2.242a1.946 1.946 0 01-1.938-1.938c-.189-1.368-.266-1.862-.836-2.47-1.443-1.443-2.052-2.09-2.052-4.863 0-7.333 6.384-15.5 16.756-15.5 9.537 0 14.172 6.535 14.172 13.565 0 12.461-14.361 12.689-14.855 12.689a10.69 10.69 0 01-1.71-.113zM78.041 69.954c0 .267.076 4.483 1.634 4.483 2.812 0 8.131-10.372 8.131-15.387a8.751 8.751 0 00-.229-1.786c-6.348 1.671-9.536 7.865-9.536 12.69z"/><path data-name="パス 53" d="M117.261 81.618h4.065c2.85 0 5.282-2.432 5.623-2.773a9.353 9.353 0 003.116-5.965h.95l-.418 9.726h-18.845v-.988l14.209-25.76h-4.255a7.327 7.327 0 00-5.167 2.318c-2.013 2.013-2.393 3.647-2.736 6.079h-.987l.379-9.385h18.276v.988z"/><path data-name="パス 54" d="M158.255 82.606h-21.847v-.988c2.546-.037 3.306-.38 3.306-2.963V58.822c0-2.584-.609-2.926-3.306-2.964v-.983h21.087l.722 9.195h-.988a10.492 10.492 0 00-3.343-6.269 8.09 8.09 0 00-5.585-1.938c-2.926 0-3.572 1.1-3.572 2.964v8.967h2.052c1.026 0 3.913-.532 4.179-5.281h.95v12.262h-.95c-.228-4.976-2.735-6-4.179-6h-2.052v9.879c0 1.823.836 2.963 3.534 2.963a8.6 8.6 0 006.839-3.191 12.2 12.2 0 002.431-5.851h.987z"/><path data-name="パス 55" d="M183.6 82.986c-1.861 0-4.749-1.216-5.2-6.763-.38-4.332-.418-5.243-1.177-6.383a2.7 2.7 0 00-2.318-1.1h-2.773v9.835c0 2.7.607 3 3.229 3.039v.988h-11.55v-.988c2.28-.037 3.3-.418 3.3-3.039v-19.64c0-2.7-.645-3.039-3.3-3.077v-.983h13.868c5.319 0 8.32 3.192 8.32 6.687 0 3.648-3.039 6.156-8.511 6.763 3.268 1.1 4.9 2.812 6.156 7.295.379 1.406 1.1 4.065 2.355 4.065.988 0 1.406-2.393 1.482-2.773h.988c-.347 1.856-1.112 6.074-4.869 6.074zm-8.13-27.128c-2.85 0-3.343.76-3.343 3.077v8.854h3.343c3.876 0 4.9-2.926 4.9-5.814.001-4.255-1.177-6.117-4.9-6.117z"/><path data-name="パス 56" d="M205.528 82.986c-5.661 0-11.854-6.041-11.854-14.248s6.193-14.21 11.854-14.21 11.817 6.041 11.817 14.21c0 8.245-6.232 14.248-11.817 14.248zm0-27.393c-5.092 0-6.269 6.344-6.269 13.145 0 6.65 1.1 13.147 6.269 13.147 5.358 0 6.231-7.106 6.231-13.147 0-6.497-1.026-13.145-6.231-13.145z"/><path data-name="パス 57" d="M254.708 83.404c-.531 1.254-.607 1.406-.987 1.406-.3 0-.609-.228-1.14-.608-6.953-4.978-9.727-12.424-10.524-19.529-.571 5.965-1.748 9.346-4.028 12.272A20.861 20.861 0 01223.059 85l-.076-.38a20.062 20.062 0 008.891-6.232c3.837-4.672 4.559-9.156 5.053-15.387h-13.3l-.456-.836h13.792c.228-3.8.265-8.511.265-11.284l5.928.57c.456.038.836.3.836.684 0 .418-.152.494-1.519 1.1 0 1.483 0 4.522-.229 8.929h8.473l2.546-3.192a.82.82 0 01.607-.341 1.068 1.068 0 01.723.341l2.963 2.85c.228.19.418.342.418.685 0 .38-.38.493-.684.493h-14.514a28.437 28.437 0 005.358 10.373 21.974 21.974 0 0010.486 7.066v.418c-1.442.23-3.038.533-3.912 2.547z"/><path data-name="パス 58" d="M273.342 77.705a14.806 14.806 0 003.876.8c.607 0 .684-.266.722-.57.152-1.1.152-10.258.152-12.994-1.178.152-5.966.684-8.549 1.709-.076.038-1.368.532-1.444.532-.874 0-3.572-2.735-3.572-4.863 0-.114 0-.342.191-.342a5.214 5.214 0 011.1.76 3.16 3.16 0 001.862.456c1.14 0 8.7-.874 10.411-1.063 0-3.116 0-6.65-.494-7.6a2.282 2.282 0 00-1.1-.987c-.152-.076-.76-.342-.76-.494 0-.456 1.709-.646 2.127-.646 1.9 0 4.94 1.747 4.94 2.7a11.44 11.44 0 01-.836 1.672 16.818 16.818 0 00-.607 5.015c1.025-.113 6.268-.607 6.382-.646.19-.038 1.064-.456 1.254-.456.8 0 4.369 1.14 4.369 3a1.058 1.058 0 01-1.215 1.1 11.784 11.784 0 01-2.2-.266 23 23 0 00-3.229-.19c-1.4 0-3.268.076-5.4.265-.076 4.18-.076 4.827-.076 6.688 0 1.14.153 5.281.19 6.421.038.342.152 1.824.152 2.128 0 1.33-.684 4.369-2.279 4.369-.685 0-1.065-.684-1.521-1.823-.342-.874-.76-1.977-4.558-4.484zm-1.558-5.927c0 4.142-2.355 8.32-4.976 8.32a1.717 1.717 0 01-1.634-1.785c0-1.14.645-1.634 2.583-3.154 2.28-1.823 2.888-3.268 3.724-5.889a10.474 10.474 0 01.303 2.505zm21.316 4.407a2 2 0 01-1.748 2.166c-1.482 0-1.938-1.1-3.04-3.572a18.28 18.28 0 00-2.736-3.457 8.826 8.826 0 00-3.082-2.047c5.7.185 10.606 3.49 10.606 6.91z"/><path data-name="パス 59" d="M306.733 67.071c2.394 0 14.1-.683 16.756-.8.342 0 1.937-.493 2.317-.493 1.14 0 3.876 1.823 3.876 3.268 0 .569-.646 1.025-1.444 1.025-.456 0-1.33-.114-1.976-.19a52.531 52.531 0 00-6.306-.57c-1.368 0-11.1.722-12.311.912-.418.039-2.355.684-2.849.684s-3.876-1.14-4.142-6.231c1.142 1.104 2.432 2.395 6.079 2.395z"/><path data-name="パス 60" d="M335.463 81.732c7.294-5.319 8.435-12.424 8.435-17.933 0-1.291 0-4.1-.761-4.826-.227-.189-1.519-.8-1.519-1.063 0-.418 1.9-.532 2.166-.532 2.393 0 5.243 2.469 5.243 2.926 0 .265-.874 1.063-.912 1.253-.152.495-.532 4.9-.646 5.814a16.628 16.628 0 01-6.873 12.304 14.7 14.7 0 01-4.939 2.394zm34.533-16.338c-3.116 6.84-10.411 11.361-12.235 12.425a3.333 3.333 0 00-1.329 1.178c-.646 1.1-.723 1.216-1.216 1.216-1.482 0-4.179-4.369-4.179-5.129a8.434 8.434 0 01.532-1.368c.38-1.407.38-7.866.38-9.689a40.673 40.673 0 00-.267-6.269 2.506 2.506 0 00-1.14-1.52c-.189-.114-1.253-.532-1.253-.76 0-.532 1.1-.874 1.938-.874 2.165 0 5.623 2.128 5.623 3.23a8.245 8.245 0 01-.646 1.292c-.456 1.063-.874 7.3-.874 12.234 0 2.47 0 2.774.988 2.774 3.191 0 10.677-5.852 13.526-8.853z"/></g></g></svg>